<svg width="210mm" height="297mm" viewBox="0 0 210 297" xmlns="http://www.w3.org/2000/svg"><defs><filter id="a" x="-.021" y="-.003" width="1.032" height="1.008" color-interpolation-filters="sRGB"><feFlood flood-opacity=".2" flood-color="#223C50" result="flood"/><feComposite in="flood" in2="SourceGraphic" operator="in" result="composite1"/><feGaussianBlur in="composite1" stdDeviation=".5" result="blur"/><feOffset dx="-1" dy=".5" result="offset"/><feComposite in="SourceGraphic" in2="offset" result="composite2"/></filter></defs><g fill="#7945fc"><path d="M192.327 283.187c2.227-2.987 5.33-5.216 7.678-8.108 1.174-1.447 2.163-3.076 2.655-4.873.492-1.797.457-3.776-.333-5.463-.55-1.175-1.438-2.165-2.44-2.987-1.004-.821-2.124-1.485-3.245-2.138-1.12-.653-2.248-1.301-3.274-2.094-1.025-.793-1.952-1.743-2.566-2.885-.887-1.65-1.067-3.62-.752-5.468.315-1.847 1.095-3.587 2.035-5.208 1.879-3.243 4.438-6.145 5.624-9.7 1.227-3.678.855-7.688.206-11.51-.65-3.824-1.566-7.65-1.389-11.524.207-4.496 1.873-8.773 3.284-13.046 1.412-4.274 2.596-8.805 1.807-13.235-.817-4.59-3.644-8.523-6.307-12.348-1.33-1.913-2.644-3.849-3.688-5.932s-1.818-4.33-2.009-6.652c-.196-2.4.236-4.822 1.02-7.099.786-2.276 1.917-4.418 3.145-6.489 2.455-4.142 5.346-8.11 6.809-12.698 1.48-4.639 1.39-9.721.018-14.393-1.371-4.672-3.993-8.936-7.34-12.473-3.408-3.602-7.563-6.486-10.649-10.368-1.543-1.941-2.809-4.14-3.422-6.543-.613-2.403-.54-5.023.48-7.283 1.066-2.362 3.088-4.188 5.334-5.479 2.247-1.29 4.73-2.101 7.191-2.912 2.461-.812 4.94-1.642 7.167-2.969 2.226-1.326 4.208-3.203 5.2-5.597.936-2.26.924-4.832.337-7.206-.588-2.374-1.722-4.578-2.981-6.674-1.26-2.096-2.657-4.111-3.835-6.255-1.178-2.143-2.143-4.442-2.453-6.868-.462-3.615.553-7.253 1.813-10.672 1.26-3.42 2.783-6.779 3.405-10.37.904-5.227-.162-10.58-1.401-15.739-1.24-5.159-2.666-10.365-2.483-15.667.124-3.622 1.023-7.24 2.802-10.396 1.78-3.156 4.46-5.833 7.72-7.416 2.964-1.44 6.347-1.95 9.626-1.62 3.279.328 6.453 1.477 9.279 3.173 5.652 3.39 9.807 8.845 12.878 14.677 7.707 14.633 9.19 31.748 8.724 48.28-.465 16.533-2.722 33.039-1.88 49.556 1.16 22.749 8.154 44.769 15.785 66.23 7.631 21.463 16 42.821 20.094 65.229 4.095 22.407 3.645 46.317-5.886 67.005-4.765 10.345-11.78 19.723-20.753 26.738-8.973 7.014-19.933 11.598-31.29 12.452-5.103.384-10.292.017-15.202-1.422-4.911-1.44-9.539-3.98-13.154-7.601-3.615-3.622-6.177-8.352-6.903-13.417-.725-5.066.46-10.441 3.519-14.543z" filter="url(#a)"/><path d="M-32.11 282.801c2.228-2.986 5.33-5.215 7.678-8.108 1.175-1.446 2.163-3.076 2.655-4.872.492-1.797.457-3.777-.332-5.464-.55-1.174-1.438-2.165-2.441-2.986-1.003-.822-2.124-1.486-3.244-2.139-1.12-.653-2.249-1.3-3.274-2.094-1.026-.793-1.953-1.743-2.566-2.885-.888-1.65-1.067-3.62-.752-5.467.314-1.848 1.095-3.587 2.034-5.209 1.88-3.242 4.439-6.144 5.625-9.7 1.226-3.678.855-7.688.206-11.51-.65-3.823-1.567-7.65-1.389-11.524.207-4.495 1.872-8.773 3.284-13.046 1.411-4.273 2.596-8.805 1.807-13.235-.817-4.589-3.645-8.523-6.307-12.348-1.331-1.913-2.644-3.849-3.689-5.932-1.044-2.083-1.818-4.329-2.008-6.652-.197-2.4.235-4.822 1.02-7.098.785-2.277 1.916-4.418 3.144-6.49 2.456-4.142 5.347-8.11 6.81-12.698 1.479-4.639 1.39-9.72.018-14.393-1.372-4.672-3.993-8.936-7.34-12.473-3.408-3.602-7.563-6.485-10.65-10.368-1.542-1.94-2.808-4.14-3.421-6.543-.614-2.402-.54-5.023.48-7.283 1.066-2.361 3.087-4.187 5.334-5.478 2.246-1.291 4.73-2.102 7.191-2.913 2.46-.811 4.94-1.642 7.166-2.968s4.208-3.204 5.2-5.598c.936-2.26.925-4.832.337-7.206-.588-2.374-1.721-4.578-2.98-6.674-1.26-2.096-2.657-4.111-3.836-6.254-1.178-2.144-2.143-4.443-2.452-6.87-.462-3.614.553-7.251 1.812-10.671 1.26-3.42 2.784-6.779 3.405-10.37.905-5.227-.162-10.58-1.4-15.739-1.24-5.158-2.666-10.365-2.484-15.667.125-3.621 1.023-7.239 2.803-10.395 1.78-3.157 4.46-5.834 7.72-7.417 2.964-1.44 6.346-1.949 9.625-1.62 3.28.329 6.454 1.478 9.28 3.173 5.652 3.39 9.806 8.846 12.877 14.677 7.707 14.634 9.19 31.749 8.725 48.28-.465 16.533-2.722 33.039-1.88 49.556 1.16 22.75 8.153 44.769 15.785 66.231 7.63 21.463 15.999 42.82 20.094 65.228 4.094 22.408 3.645 46.317-5.886 67.006-4.766 10.344-11.78 19.722-20.754 26.737-8.972 7.015-19.932 11.598-31.29 12.452-5.103.384-10.291.018-15.202-1.422-4.91-1.44-9.538-3.979-13.153-7.6-3.615-3.623-6.178-8.353-6.903-13.418-.726-5.066.46-10.44 3.518-14.543z" transform="rotate(180 -7.025 141.65)" filter="url(#a)"/></g></svg>