<svg width="210mm" height="297mm" viewBox="0 0 210 297" xmlns="http://www.w3.org/2000/svg"><path d="M92.482 1.12C78.63 2.62 60.19 7.737 50.309 12.678c-7.235 3.706-17.822 11.117-22.851 16.234C12.812 43.558 6.195 61.027 6.195 84.848c.088 18.616 3.176 31.497 10.764 44.29 10.94 18.264 26.468 29.821 62.024 45.967 34.232 15.528 43.143 20.998 46.849 28.233 3.882 7.41 1.5 18.263-4.941 23.204-5.558 4.235-11.47 5.91-22.586 6.352-23.028.882-54.26-5.823-79.758-17.204-4.852-2.206-10.146-4.5-11.646-5.206l-2.912-1.235v69.523l8.647 3.53c23.645 9.793 40.32 13.145 70.317 14.028 32.203.882 51.437-2.47 73.317-12.97 16.234-7.852 28.674-18.792 37.409-32.997 12.881-20.822 15.969-49.76 7.852-74.023-4.5-13.587-11.47-23.468-23.116-32.909-10.499-8.381-20.38-14.028-46.143-26.292-35.379-16.763-43.584-21.792-47.025-29.026-4.411-9.088-.618-18.175 9.617-22.851 3.176-1.5 6.352-1.941 15.704-2.294 17.999-.618 35.027 3 58.76 12.616 6.794 2.647 12.617 4.588 12.97 4.235.352-.44 5.646-13.41 11.822-28.938 6.176-15.528 11.381-28.674 11.646-29.204.706-1.764-23.292-10.764-39.614-14.91C148.418 2.179 137.83.856 118.244.59c-10.146-.177-21.792.088-25.762.53z"/><path d="M67.89 295.347c-20.149-1.633-33.156-4.738-53.618-12.802l-9.837-3.877v-34.314c0-18.872.15-34.314.333-34.314.183 0 4.485 1.841 9.56 4.091 11.845 5.251 20.75 8.573 30.427 11.35 26.27 7.536 54.227 9.84 67.957 5.6 7.634-2.359 12.758-7.434 14.527-14.39 1.62-6.37.327-12.455-3.681-17.317-3.734-4.53-17.86-12.459-40.705-22.847-42.522-19.337-58.482-31.95-69.286-54.758-4.706-9.933-6.912-21.56-6.912-36.422 0-21.82 4.656-36.458 16.106-50.635 6.07-7.514 17.837-16.734 27.693-21.698C58.564 8.93 74.187 4.34 87.356 2.17c6.261-1.031 9.342-1.173 25.147-1.154 20.271.023 28.992.73 42.066 3.408 16.863 3.454 43.32 12.163 49.758 16.378 1.212.793 1.202.821-9.786 28.097-6.05 15.017-11.345 28.105-11.767 29.084l-.769 1.78-6.071-2.145c-3.34-1.18-9.418-3.424-13.508-4.986-19.896-7.602-35.403-10.472-52.98-9.806-12.59.477-17.079 2.024-22.112 7.622-4.357 4.847-5.306 11.05-2.633 17.21 3.07 7.076 8.488 10.527 44.705 28.482 37.626 18.654 44.13 22.59 54.891 33.216 8.55 8.443 12.982 15.623 16.886 27.36 3.371 10.132 4.121 15.236 4.122 28.06 0 9.292-.201 12.09-1.248 17.306-5.58 27.792-22.132 48.541-48.912 61.31-12.119 5.779-23.026 9.126-36.581 11.226-6.8 1.053-40.658 1.54-50.674.729z" fill="#7945fc"/></svg>