<svg version="1.0" width="666.667" height="666.667" viewBox="0 0 500 500" xmlns="http://www.w3.org/2000/svg"><path d="M238.3 80.1c-15.7 1.7-36.6 7.5-47.8 13.1-8.2 4.2-20.2 12.6-25.9 18.4-16.6 16.6-24.1 36.4-24.1 63.4.1 21.1 3.6 35.7 12.2 50.2 12.4 20.7 30 33.8 70.3 52.1 38.8 17.6 48.9 23.8 53.1 32 4.4 8.4 1.7 20.7-5.6 26.3-6.3 4.8-13 6.7-25.6 7.2-26.1 1-61.5-6.6-90.4-19.5-5.5-2.5-11.5-5.1-13.2-5.9L138 316v78.8l9.8 4c26.8 11.1 45.7 14.9 79.7 15.9 36.5 1 58.3-2.8 83.1-14.7 18.4-8.9 32.5-21.3 42.4-37.4 14.6-23.6 18.1-56.4 8.9-83.9-5.1-15.4-13-26.6-26.2-37.3-11.9-9.5-23.1-15.9-52.3-29.8-40.1-19-49.4-24.7-53.3-32.9-5-10.3-.7-20.6 10.9-25.9 3.6-1.7 7.2-2.2 17.8-2.6 20.4-.7 39.7 3.4 66.6 14.3 7.7 3 14.3 5.2 14.7 4.8.4-.5 6.4-15.2 13.4-32.8 7-17.6 12.9-32.5 13.2-33.1.8-2-26.4-12.2-44.9-16.9-20.1-5.2-32.1-6.7-54.3-7-11.5-.2-24.7.1-29.2.6z"/><path fill="#fff" d="M-83.248-83.248H575.5v655.529H-83.248z"/><path d="M210.427 413.586c-22.837-1.85-37.58-5.37-60.772-14.51l-11.15-4.394v-38.893c0-21.39.17-38.892.377-38.892s5.083 2.086 10.836 4.636c13.425 5.952 23.518 9.717 34.487 12.864 29.775 8.543 61.463 11.154 77.025 6.347 8.653-2.672 14.46-8.425 16.465-16.308 1.836-7.221.37-14.118-4.172-19.629-4.233-5.134-20.243-14.121-46.136-25.896-48.196-21.917-66.286-36.213-78.532-62.064-5.333-11.258-7.834-24.437-7.834-41.282 0-24.732 5.277-41.323 18.256-57.391 6.878-8.517 20.216-18.967 31.388-24.593 9.193-4.63 26.9-9.833 41.826-12.291 7.096-1.17 10.588-1.33 28.501-1.309 22.977.027 32.861.828 47.68 3.864 19.113 3.915 49.1 13.785 56.397 18.563 1.373.9 1.363.93-11.092 31.847-6.856 17.02-12.858 31.854-13.337 32.964l-.87 2.018-6.883-2.432c-3.785-1.337-10.674-3.88-15.31-5.651-22.55-8.616-40.127-11.87-60.05-11.115-14.269.54-19.357 2.294-25.061 8.64-4.94 5.493-6.015 12.523-2.985 19.505 3.48 8.02 9.62 11.933 50.67 32.284 42.647 21.143 50.019 25.604 62.216 37.648 9.69 9.57 14.713 17.707 19.139 31.01 3.82 11.484 4.67 17.269 4.671 31.804.001 10.531-.228 13.703-1.414 19.615-6.324 31.501-25.085 55.018-55.439 69.492-13.735 6.549-26.098 10.343-41.462 12.723-7.707 1.194-46.082 1.746-57.435.826z" fill="#7945fc"/></svg>